<svg width="16" height="16" xmlns="http://www.w3.org/2000/svg">

 <g>
  <title>background</title>
  <rect fill="none" id="canvas_background" height="402" width="582" y="-1" x="-1"/>
 </g>
 <g>
  <title>Layer 1</title>
  <path fill="white" id="svg_1" d="m13.333,0l-10.666,0a2.675,2.675 0 0 0 -2.667,2.667l0,10.666c0,1.467 1.2,2.667 2.667,2.667l10.666,0c1.467,0 2.667,-1.2 2.667,-2.667l0,-10.666c0,-1.467 -1.2,-2.667 -2.667,-2.667zm-1.458,11.237a2.07,2.07 0 0 1 -0.615,0.823c-0.28,0.23 -0.635,0.413 -1.072,0.55c-0.436,0.135 -0.954,0.203 -1.555,0.203l-4.288,0l0,-9.336l4.535,0c0.838,0 1.51,0.19 2.014,0.575c0.505,0.385 0.758,0.962 0.758,1.74c0,0.47 -0.115,0.872 -0.345,1.207c-0.23,0.33 -0.56,0.59 -0.988,0.77l0,0.03c0.57,0.12 1.01,0.39 1.3,0.81c0.29,0.42 0.44,0.95 0.44,1.59c0,0.36 -0.07,0.7 -0.2,1.02l0.016,0.018zm-1.85,-2.3c-0.273,-0.25 -0.658,-0.372 -1.154,-0.372l-2.881,0l0,2.912l2.89,0c0.495,0 0.882,-0.128 1.154,-0.387c0.275,-0.256 0.413,-0.622 0.413,-1.093c-0.002,-0.46 -0.14,-0.815 -0.413,-1.06l-0.009,0zm-0.4,-1.883c0.263,-0.223 0.393,-0.544 0.393,-0.962c0,-0.47 -0.117,-0.803 -0.353,-0.994c-0.235,-0.19 -0.575,-0.288 -1.02,-0.288l-2.665,0l0,2.576l2.666,0c0.392,0 0.72,-0.113 0.98,-0.332l-0.001,0z"/>
 </g>
</svg>