<svg width="16" height="16" xmlns="http://www.w3.org/2000/svg" clip-rule="evenodd">

 <g>
  <title>background</title>
  <rect fill="none" id="canvas_background" height="402" width="582" y="-1" x="-1"/>
 </g>
 <g>
  <title>Layer 1</title>
  <path fill="#ffffff" id="svg_1" d="m15.59,10.418c-0.11,-0.235 -0.32,-0.397 -0.584,-0.46c-0.088,-0.402 -0.21,-0.6 -0.22,-0.63c0.046,-0.052 0.09,-0.105 0.1,-0.117c0.373,-0.46 0.13,-1.13 -0.506,-1.29c-0.358,-0.34 -0.682,-0.5 -0.948,-0.64c-0.255,-0.12 -0.153,-0.07 -0.392,-0.18c-0.064,-0.31 -0.085,-1.03 -0.186,-1.54c-0.09,-0.45 -0.274,-0.78 -0.556,-1c-0.113,-0.24 -0.27,-0.49 -0.462,-0.67c0.888,-1.36 1.12,-2.7 0.47,-3.4c-0.286,-0.341 -0.716,-0.491 -1.23,-0.491c-0.726,0 -1.616,0.295 -2.516,0.84l-0.595,-0.48c-2.503,-1.97 -9.582,6.74 -7.083,8.643l0.645,0.493c-0.405,1.126 0.158,2.47 1.332,2.9c0.25,0.096 0.54,0.142 0.83,0.126c0,0 1.89,3.477 5.89,3.478c4.62,0 5.8,-4.526 5.82,-4.567c0,0 0.37,-0.554 0.18,-1.015l0.011,0zm-5.375,0.73c-0.305,0.014 -0.494,-0.036 -0.6,0.32c-0.008,0.03 -0.014,0.066 -0.017,0.103c1.19,0.38 3.08,-0.35 3.26,-0.39l0.02,0c0.11,0.01 -1.02,0.73 -2.59,0.73c-0.27,0 -0.5,-0.02 -0.68,-0.06c0.08,0.3 0.31,0.43 0.6,0.5c0.22,0.05 0.46,0.06 0.46,0.06c2.17,0.06 3.96,-1.62 4.03,-1.71l-0.02,0.05c-0.32,0.72 -2.17,2.02 -4.01,1.98c-0.43,0 -0.95,-0.11 -1.22,-0.44c-0.43,-0.52 -0.21,-1.4 0.47,-1.42l0.22,-0.01c1.68,-0.05 3.19,-0.67 4.27,-1.96c0.14,-0.18 -0.02,-0.44 -0.34,-0.44l0,-0.01c-0.38,-0.41 -0.72,-0.55 -1.02,-0.7c-0.63,-0.32 -0.57,-0.04 -0.71,-1.59c-0.04,-0.41 -0.12,-0.98 -0.49,-1.2c-0.09,-0.06 -0.2,-0.08 -0.31,-0.08c-0.1,0 -0.16,0.02 -0.18,0.02c-0.2,0.05 -0.31,0.16 -0.45,0.29c-0.68,0.62 -1.22,0.45 -2.02,0.45c-0.76,0 -1.43,0.52 -1.55,1.33c-0.07,0.42 -0.03,0.86 0.04,1.05c0,0 -0.21,-0.13 -0.31,-0.25c0.12,0.74 0.79,1.22 0.79,1.22c-0.11,0.03 -0.26,0.02 -0.26,0.02s0.38,0.31 0.72,0.41c-0.09,0.06 -0.53,0.49 -0.76,1.09c-0.21,0.56 -0.12,1.24 -0.12,1.24l0.18,-0.27s-0.12,0.61 0.11,1.21c0.07,-0.18 0.24,-0.49 0.24,-0.49s-0.03,0.66 0.29,1.2c0.01,-0.12 0.06,-0.44 0.06,-0.44s0.18,0.56 0.6,0.96c0.78,0.7 2.87,0.83 4.45,-0.42c1.26,-0.99 1.48,-2.17 1.5,-2.21c0.31,-0.37 0.22,-0.74 -0.19,-0.74c-0.13,0 -0.22,0.035 -0.22,0.035s0,-0.54 -0.25,-0.96c-0.2,0.214 -0.73,0.644 -1.43,0.98c-0.66,0.31 -1.54,0.583 -2.63,0.62l0.067,-0.078zm-6.605,0.774c-0.894,0 -1.62,-0.762 -1.62,-1.703c0,-0.94 0.726,-1.704 1.62,-1.704c0.232,0 0.452,0.05 0.65,0.143c0,0 0.345,0.174 0.442,0.994c0.1,-0.256 0.152,-0.467 0.152,-0.467c0.115,0.353 0.174,0.724 0.15,1.1c0.097,-0.128 0.2,-0.368 0.2,-0.368c0.109,1.126 -0.654,2.083 -1.662,2.083l0.068,-0.078zm7.002,-3.017c0.05,0 0.087,0.02 0.086,0.037c0,0.018 -0.035,0.032 -0.078,0.062c-0.056,0.04 -0.063,0.077 -0.05,0.142c0.01,0.036 0.027,0.06 0.06,0.086c0.125,0.1 0.46,0.17 0.52,0.505c0.068,0.38 -0.213,0.73 -0.554,0.74l-0.012,0c-0.23,0 -0.355,-0.15 -0.332,-0.18c0.004,-0.01 0.014,-0.01 0.028,-0.01c0.02,0 0.043,0 0.075,0.01l0.095,0c0.247,0 0.397,-0.17 0.437,-0.34c0,-0.01 0.012,-0.06 0.012,-0.09c0.002,-0.04 0,-0.07 -0.006,-0.1c-0.03,-0.2 -0.26,-0.24 -0.41,-0.4c-0.13,-0.15 -0.1,-0.33 -0.02,-0.42c0.05,-0.05 0.11,-0.07 0.16,-0.07l-0.011,0.028zm-0.722,-0.22c-0.015,0.007 -0.145,0.065 -0.25,0.195c-0.144,0.177 -0.195,0.408 -0.187,0.63c0.01,0.217 0.08,0.337 0.09,0.366c0.03,0.057 0.01,0.09 -0.03,0.09c-0.03,0 -0.08,-0.024 -0.13,-0.076c-0.08,-0.09 -0.14,-0.225 -0.16,-0.345c-0.11,-0.5 0.12,-1 0.63,-1.2c0.03,-0.01 0.07,-0.017 0.09,-0.025c0.04,-0.012 0.15,-0.035 0.28,-0.035l0.01,0c0.05,0 0.1,0.003 0.15,0.01c0.21,0.033 0.4,0.14 0.52,0.275c0.09,0.103 0.16,0.247 0.15,0.376c-0.01,0.054 -0.03,0.13 -0.08,0.15c0,0.003 -0.01,0.005 -0.02,0.005s-0.02,-0.005 -0.03,-0.013c-0.04,-0.034 -0.01,-0.105 -0.09,-0.225c-0.09,-0.13 -0.28,-0.257 -0.54,-0.258l-6.693,0c-0.057,0 -0.117,0.006 -0.18,0.02l-0.02,0c-0.067,0.013 -0.03,0.005 -0.095,0.024l-0.027,0.01l-0.057,0.03l6.669,-0.004zm-2.144,-1.11c-0.507,-0.856 0.376,-2.614 1.004,-3.614c-5.122,-1.618 -2.538,-3.566 -1.365,-3.288l0.323,-0.123l0.882,0.745c0.606,-0.365 1.378,-0.735 2.1,-0.808c-0.44,0.098 -0.975,0.326 -1.61,0.714c-0.014,0.01 -1.5,1.02 -2.407,1.92c-0.495,0.49 -2.48,2.87 -2.48,2.87c0.364,-0.68 0.603,-1.02 1.178,-1.74c0.33,-0.41 0.68,-0.8 1.03,-1.17c0.17,-0.17 0.33,-0.33 0.5,-0.49c0.12,-0.1 0.23,-0.21 0.35,-0.3l0.16,-0.13l-1.16,-0.96l0.06,0.43l0.85,0.75s-0.75,0.51 -1.12,0.82c-1.511,1.249 -2.971,3.199 -3.521,5.099l0.026,0c-0.272,0.15 -0.54,0.39 -0.777,0.716c-0.01,0 -0.61,-0.444 -0.7,-0.59l6.677,-0.851zm8.54,-0.35c0.26,0 0.436,0.143 0.41,0.188c-0.01,0.014 -0.03,0.02 -0.065,0.02l-0.01,0c-0.03,0 -0.06,-0.004 -0.1,-0.007c-0.05,-0.003 -0.09,-0.005 -0.14,-0.005c-0.15,0 -0.31,0.023 -0.53,0.11c-0.07,0.026 -0.11,0.048 -0.14,0.048l-0.01,0c-0.03,-0.01 0,-0.08 0.07,-0.16c0.06,-0.06 0.13,-0.1 0.21,-0.13c0.01,0 0.02,-0.01 0.04,-0.01l0.11,-0.03c0.04,-0.01 0.08,-0.01 0.12,-0.01l0.035,-0.014zm1.62,-0.112c0.05,0 0.105,0.014 0.156,0.042c0.127,0.07 0.19,0.2 0.138,0.293c-0.03,0.054 -0.092,0.083 -0.164,0.083c-0.05,0 -0.105,-0.013 -0.157,-0.042c-0.127,-0.06 -0.188,-0.2 -0.138,-0.29c0.03,-0.05 0.09,-0.08 0.16,-0.08l0.005,-0.006zm0.83,-0.287c0.005,0 0.01,0 0.017,0.002c0.1,0.014 0.16,0.128 0.14,0.255c-0.02,0.117 -0.09,0.203 -0.18,0.204c0,0 -0.01,-0.01 -0.02,-0.01c-0.09,-0.02 -0.15,-0.13 -0.13,-0.26c0.02,-0.12 0.1,-0.21 0.19,-0.21l-0.017,0.019zm-2.79,-0.235c0.12,0 0.242,0.02 0.357,0.063c0.16,0.056 0.33,0.17 0.42,0.3c0.04,0.05 0.05,0.087 0.03,0.103c0,0 -0.01,0.01 -0.03,0.01c-0.04,0 -0.13,-0.04 -0.24,-0.08c-0.18,-0.07 -0.34,-0.11 -0.51,-0.11l-0.01,0c-0.17,0 -0.36,0.04 -0.6,0.13c-0.11,0.04 -0.19,0.07 -0.24,0.07l-0.01,0c-0.06,-0.01 0,-0.14 0.15,-0.26c0.2,-0.16 0.45,-0.25 0.7,-0.25l-0.017,0.024zm2.274,-0.228c0.184,-0.015 0.364,0.017 0.516,0.093c-0.01,-0.44 -0.267,-0.934 -0.46,-0.867c-0.114,0.04 -0.133,0.24 -0.13,0.36c0.005,0.15 0.027,0.28 0.074,0.42l0,-0.006zm-12.684,-0.387c0.008,-0.016 0.706,-1.33 2.226,-2.2c-0.114,-0.017 -0.393,0.02 -0.442,0.024c0.278,-0.24 0.794,-0.398 1.15,-0.47c-0.103,-0.067 -0.352,-0.084 -0.475,-0.087c-0.037,-0.01 -0.037,-0.01 -0.08,0c0.336,-0.19 0.958,-0.3 1.524,-0.2c-0.08,-0.1 -0.24,-0.17 -0.35,-0.2l-0.05,-0.02l0.04,-0.01c0.34,-0.07 0.74,0 1.05,0.13c-0.04,-0.09 -0.13,-0.18 -0.19,-0.24l-0.05,-0.04c0.33,0.07 0.64,0.21 0.88,0.37c-0.04,-0.06 -0.12,-0.17 -0.17,-0.23c0.31,0.09 0.66,0.31 0.82,0.63l0.01,0.03c-0.6,-0.46 -2.34,-0.33 -4.08,0.8c-0.8,0.51 -1.39,1.08 -1.84,1.67l0.027,0.043zm15.115,-3.826c-0.092,0.065 -0.173,0.125 -0.242,0.177l-0.007,0.005l-0.48,-0.406l0.74,0.224l-0.011,0zm-2.061,3.963l-0.357,-0.298l0.13,0.45c0.07,-0.05 0.146,-0.1 0.226,-0.152l0.001,0zm-0.966,-0.234l0.216,0.07l-0.175,-0.633l-0.102,0.315l0.06,0.248l0.001,0z"/>
 </g>
</svg>