<svg width="16" height="16" xmlns="http://www.w3.org/2000/svg" clip-rule="evenodd">

 <g>
  <title>background</title>
  <rect fill="none" id="canvas_background" height="18" width="18" y="-1" x="-1"/>
 </g>
 <g>
  <title>Layer 1</title>
  <path fill="white" id="svg_1" fill-rule="nonzero" d="m14.312,4.55c0.56,1.024 0.88,2.2 0.88,3.45c0,2.653 -1.438,4.97 -3.576,6.217l2.197,-6.352c0.41,-1.026 0.547,-1.847 0.547,-2.576c0,-0.27 -0.018,-0.52 -0.048,-0.74m-5.32,0.07c0.432,-0.02 0.822,-0.07 0.822,-0.07c0.388,-0.05 0.342,-0.62 -0.045,-0.6c0,0 -1.17,0.09 -1.92,0.09c-0.71,0 -1.9,-0.1 -1.9,-0.1c-0.39,-0.02 -0.44,0.57 -0.05,0.59c0,0 0.36,0.04 0.75,0.06l1.12,3.07l-1.58,4.72l-2.619,-7.779c0.432,-0.02 0.822,-0.067 0.822,-0.067c0.39,-0.05 0.344,-0.62 -0.044,-0.597c0,0 -1.164,0.092 -1.916,0.092c-0.133,0 -0.292,-0.005 -0.46,-0.01c1.302,-1.918 3.518,-3.208 6.028,-3.208c1.872,0 3.577,0.715 4.857,1.888c-0.03,-0.002 -0.06,-0.006 -0.093,-0.006c-0.707,0 -1.208,0.615 -1.208,1.276c0,0.593 0.342,1.095 0.706,1.687c0.274,0.48 0.594,1.095 0.594,1.984c0,0.61 -0.237,1.33 -0.548,2.32l-0.717,2.39l-2.6,-7.74l0.001,0.01zm-0.991,10.581c-0.706,0 -1.387,-0.103 -2.032,-0.292l2.158,-6.27l2.21,6.057c0.016,0.035 0.033,0.068 0.052,0.1c-0.747,0.262 -1.55,0.407 -2.388,0.407m-7.194,-7.202c0,-1.043 0.224,-2.033 0.623,-2.927l3.43,9.4c-2.397,-1.166 -4.052,-3.626 -4.052,-6.473m7.192,-8c-4.41,0 -8,3.59 -8,8s3.59,8 8,8s8,-3.59 8,-8s-3.59,-8 -8,-8"/>
 </g>
</svg>