<svg width="16" height="16" xmlns="http://www.w3.org/2000/svg" clip-rule="evenodd">

 <g>
  <title>background</title>
  <rect fill="none" id="canvas_background" height="2.49999" width="2.49999" y="-1" x="-1"/>
 </g>
 <g>
  <title>Layer 1</title>
  <path fill="#ffffff" id="svg_1" d="m8,0c-4.42,0 -8,3.582 -8,8c0,3.535 2.292,6.533 5.47,7.59c0.4,0.075 0.547,-0.172 0.547,-0.385c0,-0.19 -0.007,-0.693 -0.01,-1.36c-2.226,0.483 -2.695,-1.073 -2.695,-1.073c-0.364,-0.924 -0.89,-1.17 -0.89,-1.17c-0.725,-0.496 0.056,-0.486 0.056,-0.486c0.803,0.056 1.225,0.824 1.225,0.824c0.714,1.223 1.873,0.87 2.33,0.665c0.072,-0.517 0.278,-0.87 0.507,-1.07c-1.777,-0.2 -3.644,-0.888 -3.644,-3.953c0,-0.873 0.31,-1.587 0.823,-2.147c-0.09,-0.202 -0.36,-1.015 0.07,-2.117c0,0 0.67,-0.215 2.2,0.82c0.64,-0.178 1.32,-0.266 2,-0.27c0.68,0.004 1.36,0.092 2,0.27c1.52,-1.035 2.19,-0.82 2.19,-0.82c0.43,1.102 0.16,1.915 0.08,2.117c0.51,0.56 0.82,1.274 0.82,2.147c0,3.073 -1.87,3.75 -3.65,3.947c0.28,0.24 0.54,0.73 0.54,1.48c0,1.07 -0.01,1.93 -0.01,2.19c0,0.21 0.14,0.46 0.55,0.38c3.201,-1.049 5.491,-4.049 5.491,-7.579c0,-4.418 -3.582,-8 -8,-8"/>
 </g>
</svg>