<svg width="16" height="16" xmlns="http://www.w3.org/2000/svg" clip-rule="evenodd">

 <g>
  <title>background</title>
  <rect fill="none" id="canvas_background" height="18" width="18" y="-1" x="-1"/>
 </g>
 <g>
  <title>Layer 1</title>
  <path fill="#ffffff" id="svg_1" fill-rule="nonzero" d="m16,3.038c-0.59,0.26 -1.22,0.437 -1.885,0.517c0.677,-0.407 1.198,-1.05 1.443,-1.816c-0.634,0.37 -1.337,0.64 -2.085,0.79c-0.598,-0.64 -1.45,-1.04 -2.396,-1.04c-1.812,0 -3.282,1.47 -3.282,3.28c0,0.26 0.03,0.51 0.085,0.75c-2.728,-0.13 -5.147,-1.44 -6.766,-3.42c-0.284,0.481 -0.444,1.041 -0.444,1.651c0,1.14 0.58,2.143 1.46,2.732c-0.538,-0.017 -1.045,-0.165 -1.487,-0.41l0,0.04c0,1.59 1.13,2.918 2.633,3.22c-0.276,0.074 -0.566,0.114 -0.865,0.114c-0.21,0 -0.41,-0.02 -0.61,-0.058c0.42,1.304 1.63,2.253 3.07,2.28c-1.12,0.88 -2.54,1.404 -4.07,1.404c-0.26,0 -0.52,-0.015 -0.78,-0.045c1.46,0.93 3.18,1.474 5.04,1.474c6.04,0 9.34,-5 9.34,-9.33c0,-0.14 0,-0.28 -0.01,-0.42c0.64,-0.46 1.2,-1.04 1.64,-1.7l-0.031,-0.013z"/>
 </g>
</svg>